{"title":"Tropa de Elite-720p MP4 AAC x264 BRRip 2007-CC","uid":8262815,"size":3111799462,"categoryP":"video","categoryS":"hd___movies","magnet":"?xt=urn:btih:8bcd87650b4cdba10346fe9c4a08b23729e02b0d&amp;dn=Tropa+de+Elite-720p+MP4+AAC+x264+BRRip+2007-CC&amp;tr=udp%3A%2F%2Ftracker.openbittorrent.com%3A80&amp;tr=udp%3A%2F%2Fopen.demonii.com%3A1337&amp;tr=udp%3A%2F%2Ftracker.coppersurfer.tk%3A6969&amp;tr=udp%3A%2F%2Fexodus.desync.com%3A6969","seeders":3,"leechers":2,"uploader":"Caveman44","files":-1,"time":1363424144,"description":"Also called: Elite Squad\n &lt;a href=&quot;\nhttp://www.imdb.com/title/tt0861739/&quot; rel=&quot;nofollow&quot; target=&quot;_NEW&quot;&gt;\nhttp://www.imdb.com/title/tt0861739/&lt;/a&gt;\n\nSource: Elite.Squad.2007.LiMiTED.720p.Bluray.x264-SEPTiC Thanks!\n\nSubs: Arabic, Czech, Danish, Dutch, English, Farsi-Persian, Finnish, French, Hebrew, Indonesian, Norwegian, Romanian, Slovenian, Spanish, Swedish and Vietnamese.\n\nSample and Screens included.\n\nGeneral\nComplete name                            : Tropa de Elite-720p MP4 AAC x264 BRRip 2007-CC.mp4\nFormat                                   : MPEG-4\nFormat profile                           : Base Media\nCodec ID                                 : isom\nFile size                                : 2.86 GiB\nDuration                                 : 1h 54mn\nOverall bit rate mode                    : Variable\nOverall bit rate                         : 3 572 Kbps\nEncoded date                             : UTC 2013-02-21 13:51:43\n\nVideo\nID                                       : 1\nFormat                                   : AVC\nFormat/Info                              : Advanced Video Codec\nFormat profile                           : &lt;a class=&quot;__cf_email__&quot; href=&quot;/cdn-cgi/l/email-protection&quot; data-cfemail=&quot;e9a1808e81a9a5ddc7d8&quot;&gt;[email&amp;#160;protected]&lt;/a&gt;&lt;script cf-hash='f9e31' type=&quot;text/javascript&quot;&gt;\n/* &lt;![CDATA[ */!function(){try{var t=&quot;currentScript&quot;in document?document.currentScript:function(){for(var t=document.getElementsByTagName(&quot;script&quot;),e=t.length;e--;)if(t[e].getAttribute(&quot;cf-hash&quot;))return t[e]}();if(t&amp;&amp;t.previousSibling){var e,r,n,i,c=t.previousSibling,a=c.getAttribute(&quot;data-cfemail&quot;);if(a){for(e=&quot;&quot;,r=parseInt(a.substr(0,2),16),n=2;a.length-n;n+=2)i=parseInt(a.substr(n,2),16)^r,e+=String.fromCharCode(i);e=document.createTextNode(e),c.parentNode.replaceChild(e,c)}}}catch(u){}}();/* ]]&gt; */&lt;/script&gt;\nFormat settings, CABAC                   : Yes\nFormat settings, ReFrames                : 5 frames\nCodec ID                                 : avc1\nCodec ID/Info                            : Advanced Video Coding\nDuration                                 : 1h 53mn\nBit rate                                 : 3 255 Kbps\nMaximum bit rate                         : 53.4 Mbps\nWidth                                    : 1 280 pixels\nHeight                                   : 696 pixels\nDisplay aspect ratio                     : 1.85:1\nFrame rate mode                          : Variable\nFrame rate                               : 23.976 fps\nMinimum frame rate                       : 15.997 fps\nMaximum frame rate                       : 24.390 fps\nColor space                              : YUV\nChroma subsampling                       : 4:2:0\nBit depth                                : 8 bits\nScan type                                : Progressive\nBits/(Pixel*Frame)                       : 0.152\nStream size                              : 2.55 GiB (89%)\nWriting library                          : x264 core 112\n\nAudio\nID                                       : 2\nFormat                                   : AAC\nFormat/Info                              : Advanced Audio Codec\nFormat profile                           : LC\nCodec ID                                 : 40\nDuration                                 : 1h 54mn\nBit rate mode                            : Variable\nBit rate                                 : 384 Kbps\nMaximum bit rate                         : 711 Kbps\nChannel(s)                               : 6 channels\nChannel positions                        : Front: L C R, Side: L R, LFE\nSampling rate                            : 48.0 KHz\nCompression mode                         : Lossy\nDelay relative to video                  : 83ms\nStream size                              : 315 MiB (11%)\n\nEnjoy...\n\nRequested by cmptrluvr's \n\nComing soon: The Red Baron, Willow, Army of Shadows, Tetro, The Insider and more.","torrent":{"xt":"urn:btih:8bcd87650b4cdba10346fe9c4a08b23729e02b0d","amp;dn":"Tropa+de+Elite-720p+MP4+AAC+x264+BRRip+2007-CC","amp;tr":["udp%3A%2F%2Ftracker.openbittorrent.com%3A80","udp%3A%2F%2Fopen.demonii.com%3A1337","udp%3A%2F%2Ftracker.coppersurfer.tk%3A6969","udp%3A%2F%2Fexodus.desync.com%3A6969"],"infoHash":"8bcd87650b4cdba10346fe9c4a08b23729e02b0d","infoHashBuffer":{"type":"Buffer","data":[139,205,135,101,11,76,219,161,3,70,254,156,74,8,178,55,41,224,43,13]},"announce":[],"urlList":[]}}